<svg
  width="64"
  height="64"
  viewBox="0 0 64 64"
  fill="none"
  xmlns="http://www.w3.org/2000/svg"
>
  <defs>
    <linearGradient id="bgGradient" x1="0" y1="0" x2="1" y2="1">
      <stop offset="0%" stop-color="#2d3188" />
      <stop offset="100%" stop-color="#6e43d9" />
    </linearGradient>
  </defs>

  <!-- Rounded square background -->
<rect x="8" y="8" width="42" height="42" rx="12" ry="12" fill="url(#bgGradient)" />
  <!-- Lucide BrainCircuit icon scaled to fit -->
  <g transform="translate(14,14) scale(1.25)">
    <path d="M12 5a3 3 0 1 0-5.997.125 4 4 0 0 0-2.526 5.77 4 4 0 0 0 .556 6.588A4 4 0 1 0 12 18Z" stroke="white" stroke-width="2" stroke-linecap="round" stroke-linejoin="round" fill="none"/>
    <path d="M9 13a4.5 4.5 0 0 0 3-4" stroke="white" stroke-width="2" stroke-linecap="round" stroke-linejoin="round"/>
    <path d="M6.003 5.125A3 3 0 0 0 6.401 6.5" stroke="white" stroke-width="2" stroke-linecap="round" stroke-linejoin="round"/>
    <path d="M3.477 10.896a4 4 0 0 1 .585-.396" stroke="white" stroke-width="2" stroke-linecap="round" stroke-linejoin="round"/>
    <path d="M6 18a4 4 0 0 1-1.967-.516" stroke="white" stroke-width="2" stroke-linecap="round" stroke-linejoin="round"/>
    <path d="M12 13h4" stroke="white" stroke-width="2" stroke-linecap="round" stroke-linejoin="round"/>
    <path d="M12 18h6a2 2 0 0 1 2 2v1" stroke="white" stroke-width="2" stroke-linecap="round" stroke-linejoin="round"/>
    <path d="M12 8h8" stroke="white" stroke-width="2" stroke-linecap="round" stroke-linejoin="round"/>
    <path d="M16 8V5a2 2 0 0 1 2-2" stroke="white" stroke-width="2" stroke-linecap="round" stroke-linejoin="round"/>
    <circle cx="16" cy="13" r="0.5" fill="white"/>
    <circle cx="18" cy="3" r="0.5" fill="white"/>
    <circle cx="20" cy="21" r="0.5" fill="white"/>
    <circle cx="20" cy="8" r="0.5" fill="white"/>
  </g>
</svg>